<svg width="298" height="40" viewBox="0 0 298 40" fill="none" xmlns="http://www.w3.org/2000/svg">
<path d="M19.8342 19.2487V37.6056C19.8342 38.6596 18.9559 39.4501 17.9897 39.4501C16.9357 39.4501 16.1453 38.5718 16.1453 37.6056V21.3566C16.1453 20.127 15.5304 18.9852 14.3886 18.2825L10.6997 16.0867L0.950265 10.2019C0.0719417 9.67494 -0.279388 8.53312 0.247606 7.56696C0.7746 6.68864 2.00425 6.33731 2.88258 6.86431L14.3886 13.7152L16.1453 14.7692L18.0776 15.911C18.3411 16.0867 18.5167 16.2624 18.5167 16.5259C18.6924 17.2285 19.0437 17.9312 19.5707 18.3703C19.7464 18.7217 19.8342 18.9852 19.8342 19.2487Z" fill="#2F61AE"/>
<path d="M39.5964 0.979555C40.1234 1.85788 39.7721 2.9997 38.8938 3.52669L27.4756 10.3776L25.4554 11.6073L23.6988 12.6613C23.4353 12.8369 23.084 12.8369 22.7326 12.7491C22.4691 12.6613 22.1178 12.6613 21.8543 12.6613C21.503 12.6613 21.2395 12.7491 20.8882 12.8369C20.5368 12.9247 20.1855 12.9247 19.922 12.7491H19.8342L18.0775 11.6951L16.1452 10.5533L4.72702 3.61452C3.84869 3.08753 3.5852 1.94571 4.11219 1.06739C4.63918 0.189065 5.781 -0.162265 6.65933 0.364729L16.0574 5.986L19.8342 8.26964C20.976 8.97229 22.3813 8.97229 23.5231 8.26964L23.611 8.1818L27.3878 5.89816L36.8736 0.189065C37.8398 -0.250097 39.0694 0.101232 39.5964 0.979555Z" fill="#2F61AE"/>
<path d="M43.1979 7.65491C43.7249 8.53323 43.3735 9.67505 42.4952 10.202L32.7458 16.0868L29.0569 18.2826C28.0029 18.8974 27.3881 20.0393 27.3881 21.1811V37.5179C27.3881 38.5719 26.5097 39.4502 25.4557 39.4502C24.4018 39.4502 23.5234 38.5719 23.5234 37.5179V19.1609C23.5234 18.9853 23.6113 18.8096 23.7869 18.7218C24.4896 18.1948 24.9288 17.4043 25.0166 16.4381C25.0166 16.2625 25.1044 16.0868 25.2801 15.999L27.3002 14.7693L28.8812 13.8032L40.3872 6.86442C41.4412 6.33743 42.6709 6.68875 43.1979 7.65491Z" fill="#2F61AE"/>
<path d="M154.569 24.167H163.528L160.541 14.8567C160.366 14.2419 160.102 13.5393 159.839 12.7488C159.575 11.9583 159.312 11.08 159.048 10.1138C158.785 11.08 158.521 11.9583 158.346 12.7488C158.082 13.5393 157.819 14.2419 157.643 14.8567L154.569 24.167ZM175.649 37.254H169.764C169.061 37.254 168.534 37.0783 168.095 36.8148C167.656 36.4635 167.392 36.1122 167.217 35.5852L165.284 29.6126H152.812L150.88 35.5852C150.704 36.0243 150.441 36.3757 150.002 36.8148C149.562 37.1662 149.035 37.3418 148.421 37.3418H142.448L155.096 3.26288H162.913L175.649 37.254ZM115.132 3.17505C115.484 3.17505 115.747 3.17505 115.923 3.26288C116.186 3.26288 116.362 3.35071 116.537 3.43855C116.713 3.52638 116.889 3.61421 117.064 3.78988C117.24 3.96554 117.416 4.1412 117.591 4.4047L133.138 24.8696C133.05 24.2548 133.05 23.5521 132.962 22.9373C132.962 22.3225 132.874 21.7077 132.874 21.1807V3.17505H139.55V37.254H135.597C134.982 37.254 134.543 37.1661 134.104 36.9905C133.665 36.8148 133.313 36.4635 132.962 35.9365L117.679 15.6472C117.767 16.2621 117.767 16.7891 117.767 17.4039C117.767 17.9309 117.855 18.4579 117.855 18.9849V37.254H111.18V3.17505H115.132ZM90.0121 19.8632H93.9646C95.9847 19.8632 97.3901 19.3362 98.2684 18.37C99.1467 17.4039 99.5859 15.9986 99.5859 14.2419C99.5859 13.4514 99.498 12.7488 99.2345 12.1339C98.971 11.5191 98.7075 10.9921 98.1806 10.4651C97.7414 10.026 97.1266 9.67464 96.4239 9.41114C95.7212 9.14764 94.9308 9.05981 93.9646 9.05981H90.0121V19.8632ZM90.0121 25.8358V37.254H82.3707V3.17505H93.9646C96.2482 3.17505 98.2684 3.43855 99.9372 4.05337C101.606 4.58037 102.923 5.37086 104.065 6.42484C105.119 7.391 105.91 8.62065 106.437 9.93814C106.964 11.2556 107.227 12.7488 107.227 14.3297C107.227 15.9986 106.964 17.5795 106.437 18.9849C105.91 20.3902 105.119 21.6198 104.065 22.6738C103.011 23.7278 101.606 24.5183 99.9372 25.0453C98.2684 25.5723 96.3361 25.9236 94.0524 25.9236H90.0121V25.8358ZM58.656 24.167H67.6149L64.6286 14.8567C64.4529 14.2419 64.1895 13.5393 63.926 12.7488C63.6625 11.9583 63.399 11.08 63.1355 10.1138C62.872 11.08 62.6085 11.9583 62.4328 12.7488C62.1693 13.5393 61.9058 14.2419 61.7301 14.8567L58.656 24.167ZM79.7358 37.254H73.851C73.1483 37.254 72.6213 37.0783 72.1822 36.8148C71.743 36.4635 71.4795 36.1122 71.3039 35.5852L69.3716 29.6126H56.8994L54.9671 35.5852C54.7914 36.0243 54.5279 36.3757 54.0887 36.8148C53.6496 37.1662 53.1226 37.3418 52.5078 37.3418H46.5352L59.2708 3.17505H67.0879L79.7358 37.254Z" fill="#2F61AE"/>
<path d="M298 4.14111V6.16126H286.845V37.1661H284.561V6.16126H273.319V4.14111H298ZM252.766 20.4779H258.3C259.705 20.4779 260.935 20.3023 262.076 19.9509C263.218 19.5996 264.184 19.0726 264.887 18.4578C265.677 17.843 266.292 17.0525 266.644 16.0863C267.083 15.208 267.258 14.154 267.258 13.0122C267.258 10.6407 266.556 8.88406 265.063 7.74224C263.569 6.60042 261.462 6.07342 258.563 6.07342H252.766V20.4779ZM252.766 22.2346V37.1661H250.482V4.14111H258.563C262.252 4.14111 264.975 4.84377 266.819 6.33692C268.664 7.83007 269.542 9.93805 269.542 12.8365C269.542 14.0662 269.366 15.208 268.927 16.262C268.488 17.316 267.873 18.1943 267.083 18.9848C266.292 19.7753 265.326 20.3901 264.272 20.9171C263.13 21.4441 261.901 21.7076 260.495 21.8832C260.847 22.1467 261.198 22.4102 261.462 22.8494L272.441 37.1661H270.42C270.157 37.1661 269.981 37.0782 269.806 36.9904C269.63 36.9026 269.454 36.7269 269.279 36.5512L259.09 23.1129C258.827 22.7616 258.563 22.4981 258.3 22.4102C258.036 22.2346 257.597 22.2346 256.982 22.2346H252.766ZM223.518 25.2209H237.747L231.247 8.53273C231.159 8.26923 231.072 8.00573 230.896 7.65441C230.808 7.30308 230.72 6.95175 230.545 6.60042C230.457 6.95175 230.369 7.30308 230.193 7.65441C230.105 8.00573 230.018 8.26923 229.842 8.53273L223.518 25.2209ZM244.773 37.2539H243.017C242.841 37.2539 242.665 37.1661 242.49 37.0782C242.314 36.9904 242.226 36.8147 242.138 36.6391L238.362 27.0653H222.727L218.951 36.6391C218.863 36.8147 218.775 36.9904 218.599 37.0782C218.424 37.1661 218.248 37.2539 218.072 37.2539H216.316L229.315 4.14111H231.599L244.773 37.2539ZM195.236 27.5923C195.499 28.0315 195.675 28.4707 195.851 28.9977C195.939 28.7342 196.026 28.4707 196.114 28.295C196.202 28.0315 196.29 27.8558 196.466 27.5923L208.938 4.58027C209.026 4.40461 209.201 4.22895 209.289 4.22895C209.377 4.14111 209.553 4.14111 209.816 4.14111H211.397V37.2539H209.377V9.05972C209.377 8.62056 209.377 8.26923 209.465 7.74224L196.905 30.8421C196.729 31.2813 196.378 31.457 196.026 31.457H195.675C195.324 31.457 194.972 31.2813 194.797 30.8421L181.885 7.74224C181.973 8.1814 181.973 8.62056 181.973 9.05972V37.2539H179.953V4.14111H181.534C181.71 4.14111 181.885 4.14111 182.061 4.22895C182.237 4.31678 182.325 4.40461 182.412 4.58027L195.236 27.5923Z" fill="#2F61AE"/>
</svg>
