<svg width="235" height="31" viewBox="0 0 235 31" fill="none" xmlns="http://www.w3.org/2000/svg">
<path d="M15.5858 15.1257V29.5506C15.5858 30.3789 14.8956 31 14.1364 31C13.3082 31 12.687 30.3098 12.687 29.5506V16.7821C12.687 15.8159 12.2039 14.9186 11.3066 14.3665L8.40782 12.641L0.746721 8.01675C0.056532 7.60264 -0.219544 6.70539 0.19457 5.94618C0.608683 5.25599 1.57495 4.97992 2.26514 5.39403L11.3066 10.7775L12.687 11.6057L14.2054 12.503C14.4125 12.641 14.5505 12.7791 14.5505 12.9861C14.6885 13.5383 14.9646 14.0904 15.3787 14.4355C15.5168 14.7116 15.5858 14.9186 15.5858 15.1257Z" fill="white"/>
<path d="M31.1156 0.769737C31.5297 1.45993 31.2537 2.35717 30.5635 2.77128L21.591 8.15476L20.0036 9.12102L18.6232 9.94925C18.4162 10.0873 18.1401 10.0873 17.864 10.0183C17.657 9.94925 17.3809 9.94925 17.1738 9.94925C16.8977 9.94925 16.6907 10.0183 16.4146 10.0873C16.1385 10.1563 15.8625 10.1563 15.6554 10.0183H15.5864L14.206 9.19004L12.6876 8.29279L3.71514 2.8403C3.02495 2.42619 2.81789 1.52894 3.23201 0.838756C3.64612 0.148567 4.54337 -0.127508 5.23355 0.286605L12.6186 4.70381L15.5864 6.4983C16.4836 7.05045 17.5879 7.05045 18.4852 6.4983L18.5542 6.42928L21.522 4.63479L28.976 0.148567C29.7353 -0.196527 30.7015 0.0795486 31.1156 0.769737Z" fill="white"/>
<path d="M33.9446 6.01519C34.3587 6.70537 34.0826 7.60262 33.3925 8.01673L25.7314 12.641L22.8326 14.3665C22.0043 14.8496 21.5212 15.7468 21.5212 16.6441V29.4816C21.5212 30.3098 20.831 31 20.0028 31C19.1746 31 18.4844 30.3098 18.4844 29.4816V15.0567C18.4844 14.9186 18.5534 14.7806 18.6914 14.7116C19.2436 14.2974 19.5887 13.6763 19.6577 12.9171C19.6577 12.779 19.7267 12.641 19.8648 12.572L21.4522 11.6057L22.6945 10.8465L31.736 5.39402C32.5642 4.9799 33.5305 5.25598 33.9446 6.01519Z" fill="white"/>
<path d="M121.462 18.9906H128.501L126.155 11.6746C126.017 11.1915 125.81 10.6393 125.603 10.0182C125.396 9.397 125.189 8.70681 124.982 7.94761C124.774 8.70681 124.567 9.397 124.429 10.0182C124.222 10.6393 124.015 11.1915 123.877 11.6746L121.462 18.9906ZM138.026 29.2744H133.402C132.85 29.2744 132.436 29.1364 132.09 28.9293C131.745 28.6533 131.538 28.3772 131.4 27.9631L129.882 23.2698H120.081L118.563 27.9631C118.425 28.3082 118.218 28.5842 117.873 28.9293C117.527 29.2054 117.113 29.3435 116.63 29.3435H111.937L121.876 2.56414H128.018L138.026 29.2744ZM90.4721 2.49512C90.7482 2.49512 90.9552 2.49512 91.0933 2.56414C91.3003 2.56414 91.4384 2.63316 91.5764 2.70217C91.7144 2.77119 91.8525 2.84021 91.9905 2.97825C92.1285 3.11629 92.2666 3.25432 92.4046 3.46138L104.621 19.5428C104.552 19.0596 104.552 18.5075 104.483 18.0244C104.483 17.5412 104.414 17.0581 104.414 16.644V2.49512H109.659V29.2744H106.553C106.07 29.2744 105.725 29.2054 105.38 29.0674C105.035 28.9293 104.759 28.6533 104.483 28.2392L92.4736 12.2958C92.5427 12.7789 92.5427 13.193 92.5427 13.6762C92.5427 14.0903 92.6117 14.5044 92.6117 14.9185V29.2744H87.3662V2.49512H90.4721ZM70.7327 15.6087H73.8385C75.426 15.6087 76.5303 15.1946 77.2205 14.4354C77.9107 13.6762 78.2558 12.5719 78.2558 11.1915C78.2558 10.5703 78.1867 10.0182 77.9797 9.53504C77.7726 9.05191 77.5656 8.6378 77.1515 8.22368C76.8064 7.87859 76.3232 7.60251 75.7711 7.39546C75.2189 7.1884 74.5977 7.11938 73.8385 7.11938H70.7327V15.6087ZM70.7327 20.302V29.2744H64.7281V2.49512H73.8385C75.633 2.49512 77.2205 2.70217 78.5318 3.18531C79.8432 3.59942 80.8785 4.22059 81.7757 5.04882C82.6039 5.80802 83.2251 6.77429 83.6392 7.80957C84.0533 8.84485 84.2604 10.0182 84.2604 11.2605C84.2604 12.5719 84.0533 13.8142 83.6392 14.9185C83.2251 16.0228 82.6039 16.9891 81.7757 17.8173C80.9475 18.6455 79.8432 19.2667 78.5318 19.6808C77.2205 20.0949 75.702 20.371 73.9076 20.371H70.7327V20.302ZM46.093 18.9906H53.1329L50.7862 11.6746C50.6482 11.1915 50.4412 10.6393 50.2341 10.0182C50.027 9.397 49.82 8.70681 49.6129 7.94761C49.4059 8.70681 49.1988 9.397 49.0608 10.0182C48.8537 10.6393 48.6467 11.1915 48.5086 11.6746L46.093 18.9906ZM62.6575 29.2744H58.0332C57.4811 29.2744 57.067 29.1364 56.7219 28.9293C56.3768 28.6533 56.1697 28.3772 56.0317 27.9631L54.5133 23.2698H44.7126L43.1942 27.9631C43.0561 28.3082 42.8491 28.5842 42.504 28.9293C42.1589 29.2054 41.7448 29.3435 41.2616 29.3435H36.5684L46.5761 2.49512H52.7188L62.6575 29.2744Z" fill="white"/>
<path d="M234.17 3.25439V4.84183H225.404V29.2055H223.61V4.84183H214.775V3.25439H234.17ZM198.625 16.0919H202.973C204.077 16.0919 205.044 15.9539 205.941 15.6778C206.838 15.4017 207.597 14.9876 208.149 14.5045C208.771 14.0213 209.254 13.4002 209.53 12.641C209.875 11.9508 210.013 11.1225 210.013 10.2253C210.013 8.36179 209.461 6.98141 208.287 6.08417C207.114 5.18692 205.458 4.77281 203.18 4.77281H198.625V16.0919ZM198.625 17.4723V29.2055H196.83V3.25439H203.18C206.079 3.25439 208.218 3.80655 209.668 4.97987C211.117 6.15319 211.807 7.80964 211.807 10.0873C211.807 11.0535 211.669 11.9508 211.324 12.779C210.979 13.6072 210.496 14.2974 209.875 14.9186C209.254 15.5398 208.495 16.0229 207.666 16.437C206.769 16.8511 205.803 17.0582 204.699 17.1962C204.975 17.4033 205.251 17.6103 205.458 17.9554L214.085 29.2055H212.498C212.291 29.2055 212.153 29.1365 212.015 29.0674C211.876 28.9984 211.738 28.8604 211.6 28.7224L203.594 18.1625C203.387 17.8864 203.18 17.6793 202.973 17.6103C202.766 17.4723 202.421 17.4723 201.938 17.4723H198.625ZM175.642 19.8189H186.823L181.715 6.70534C181.646 6.49828 181.577 6.29122 181.439 6.01515C181.37 5.73907 181.301 5.463 181.163 5.18692C181.094 5.463 181.025 5.73907 180.887 6.01515C180.818 6.29122 180.749 6.49828 180.611 6.70534L175.642 19.8189ZM192.344 29.2745H190.964C190.826 29.2745 190.688 29.2055 190.55 29.1365C190.412 29.0675 190.343 28.9294 190.274 28.7914L187.306 21.2683H175.02L172.053 28.7914C171.984 28.9294 171.915 29.0675 171.777 29.1365C171.638 29.2055 171.5 29.2745 171.362 29.2745H169.982L180.197 3.25439H181.991L192.344 29.2745ZM153.417 21.6824C153.625 22.0275 153.763 22.3726 153.901 22.7867C153.97 22.5797 154.039 22.3726 154.108 22.2346C154.177 22.0275 154.246 21.8895 154.384 21.6824L164.184 3.59949C164.253 3.46145 164.391 3.32341 164.461 3.32341C164.53 3.25439 164.668 3.25439 164.875 3.25439H166.117V29.2745H164.53V7.11945C164.53 6.77436 164.53 6.49828 164.599 6.08417L154.729 24.2361C154.591 24.5812 154.315 24.7193 154.039 24.7193H153.763C153.487 24.7193 153.21 24.5812 153.072 24.2361L142.927 6.08417C142.996 6.42926 142.996 6.77436 142.996 7.11945V29.2745H141.408V3.25439H142.651C142.789 3.25439 142.927 3.25439 143.065 3.32341C143.203 3.39243 143.272 3.46145 143.341 3.59949L153.417 21.6824Z" fill="white"/>
</svg>
