<svg width="27" height="27" viewBox="0 0 27 27" fill="none" xmlns="http://www.w3.org/2000/svg">
<circle opacity="0.5" cx="13.5" cy="13.5" r="13.5" fill="white"/>
<circle cx="13.5" cy="13.5" r="11.25" fill="white"/>
<path d="M5.625 13.5C5.625 15.2902 6.33616 17.0071 7.60203 18.273C8.8679 19.5388 10.5848 20.25 12.375 20.25C14.1675 20.25 15.885 19.545 17.175 18.3L16.05 17.175C15.5777 17.6748 15.0078 18.0725 14.3757 18.3434C13.7436 18.6143 13.0627 18.7527 12.375 18.75C7.695 18.75 5.355 13.095 8.6625 9.7875C11.97 6.48 17.625 8.8275 17.625 13.5H15.375L18.375 16.5H18.45L21.375 13.5H19.125C19.125 11.7098 18.4138 9.9929 17.148 8.72703C15.8821 7.46116 14.1652 6.75 12.375 6.75C10.5848 6.75 8.8679 7.46116 7.60203 8.72703C6.33616 9.9929 5.625 11.7098 5.625 13.5Z" fill="#4C5EFE"/>
</svg>
