<svg width="114" height="39" viewBox="0 0 114 39" fill="none" xmlns="http://www.w3.org/2000/svg">
<path d="M15.2002 28.9107C16.5335 29.6805 16.5335 31.605 15.2002 32.3748L8.66448 36.1482C7.33114 36.918 5.66448 35.9558 5.66448 34.4162L5.66448 26.8694C5.66448 25.3298 7.33115 24.3675 8.66448 25.1373L15.2002 28.9107Z" fill="#290088"/>
<path d="M14.8286 6.62509C16.1619 7.39489 16.1619 9.31939 14.8286 10.0892L8.2929 13.8626C6.95956 14.6324 5.2929 13.6701 5.2929 12.1305L5.2929 4.58374C5.2929 3.04414 6.95957 2.08189 8.2929 2.8517L14.8286 6.62509Z" fill="#DCA726"/>
<path d="M3 23.4606C1.66666 22.6908 1.66667 20.7663 3 19.9965L14.55 13.3281C15.8833 12.5583 17.55 13.5206 17.55 15.0602L17.55 28.397C17.55 29.9366 15.8833 30.8988 14.55 30.129L3 23.4606Z" fill="#4C5EFE"/>
<path d="M31.2398 29.8121C31.1342 29.3715 30.8967 29.1335 30.5273 29.0983H29.1286V14.6641H31.2398V13.9503H23.7715V14.6641H25.8827V29.0983H23.7715V29.8121H31.2398Z" fill="url(#paint0_linear_3_608)"/>
<path d="M40.2387 30.0764C41.8925 30.0764 43.2384 29.4508 44.2764 28.1995C45.2264 27.0539 45.7014 25.6087 45.7014 23.8639C45.7014 21.6785 45.0505 20.0659 43.7486 19.0261C42.9921 18.4269 42.1212 18.1273 41.136 18.1273C39.2711 18.1273 37.9076 19.0261 37.0456 20.8238C37.028 20.859 37.0104 20.8943 36.9928 20.9295V12.6285H32.4273V13.3159H34.0635V27.6707C34.0635 28.4462 33.7996 28.9044 33.2718 29.0454C33.0431 29.0983 32.7616 29.1247 32.4273 29.1247V29.8121H36.2275L36.465 27.988C37.3271 29.3627 38.585 30.0588 40.2387 30.0764ZM40.0012 19.3433C41.5846 19.3433 42.4291 20.7533 42.5347 23.5731C42.5347 23.767 42.5347 23.9609 42.5347 24.1547C42.5347 27.0803 41.8573 28.7811 40.5026 29.2569C40.2563 29.345 40.01 29.3891 39.7637 29.3891C38.5498 29.3891 37.7229 28.6401 37.2831 27.142C37.072 26.437 36.9664 25.6087 36.9664 24.657C36.9664 22.3835 37.4766 20.8061 38.497 19.9249C38.9544 19.5372 39.4558 19.3433 40.0012 19.3433Z" fill="url(#paint1_linear_3_608)"/>
<path d="M56.8115 30.0764C58.0607 30.0764 58.8348 29.583 59.1339 28.596C59.2218 28.2435 59.2834 27.8205 59.3186 27.3271L58.6324 27.3006C58.5269 28.5343 58.2102 29.16 57.6824 29.1776C57.2778 29.1424 57.0754 28.7017 57.0754 27.8558V22.3042C57.0754 20.0307 56.0023 18.6824 53.8559 18.2594C53.4161 18.1713 52.9498 18.1273 52.4572 18.1273C50.2405 18.1273 48.8066 18.6207 48.1557 19.6077C47.9622 19.8897 47.8654 20.1893 47.8654 20.5065C47.8654 21.1057 48.1469 21.4935 48.7099 21.6697C48.8682 21.7226 49.0265 21.749 49.1849 21.749C49.8182 21.749 50.2581 21.423 50.5044 20.7709C50.5396 20.6828 50.5923 20.533 50.6627 20.3215C50.8738 19.5989 51.1465 19.1495 51.4808 18.9732C51.7095 18.8675 51.9646 18.8146 52.2461 18.8146C53.3017 18.8146 53.9175 19.4403 54.0934 20.6916C54.1286 20.9736 54.1462 21.282 54.1462 21.6168V23.3088C49.5368 23.3793 47.2232 24.5865 47.2057 26.9305C47.2057 28.4462 47.8654 29.4243 49.1849 29.8649C49.6071 30.0059 50.0645 30.0764 50.5572 30.0764C51.947 30.0764 53.029 29.583 53.8031 28.596C54.0142 28.2964 54.1814 27.988 54.3045 27.6707C54.586 29.2569 55.4217 30.0588 56.8115 30.0764ZM51.7711 28.9661C50.7859 28.9661 50.2581 28.2611 50.1877 26.8512C50.1877 26.7631 50.1877 26.675 50.1877 26.5869C50.1877 25.3884 50.7859 24.6306 51.9822 24.3133C52.5452 24.1547 53.2665 24.0666 54.1462 24.049V26.4547C53.8471 27.6531 53.2841 28.4374 52.4572 28.8075C52.2109 28.9132 51.9822 28.9661 51.7711 28.9661Z" fill="url(#paint2_linear_3_608)"/>
<path d="M65.4674 29.1247H64.6493L64.6757 22.595C64.7989 21.1851 65.3267 20.2157 66.2591 19.687C66.5934 19.5108 66.9276 19.4226 67.2619 19.4226C68.2471 19.4226 68.8717 19.9426 69.1356 20.9824C69.2236 21.2996 69.2675 21.6521 69.2675 22.0398V27.6972C69.2675 28.4374 69.0652 28.878 68.6606 29.019C68.4671 29.0895 68.1856 29.1247 67.8161 29.1247V29.8121H73.8594C73.8594 29.4243 73.745 29.204 73.5163 29.1512C73.4107 29.1335 73.3052 29.1247 73.1996 29.1247H72.1704V22.4364C72.1704 20.3567 71.4491 19.0173 70.0065 18.4181C69.549 18.2242 69.0564 18.1273 68.5286 18.1273C67.2619 18.1273 66.1887 18.6296 65.3091 19.6341C65.0276 19.969 64.7989 20.3215 64.6229 20.6916L64.491 18.4974H60.0575V19.1583H61.7464V27.6972C61.7464 28.4726 61.4562 28.922 60.8756 29.0454C60.6469 29.0983 60.3742 29.1247 60.0575 29.1247V29.8121H66.1272C66.1272 29.4243 66.0128 29.204 65.7841 29.1512C65.6785 29.1335 65.573 29.1247 65.4674 29.1247Z" fill="url(#paint3_linear_3_608)"/>
<path d="M81.0902 29.1247H79.7707V25.1064L80.7999 24.1283L84.1778 29.8385L88.2682 29.8121C88.2682 29.4067 88.1539 29.1864 87.9252 29.1512C87.8372 29.1335 87.7404 29.1247 87.6349 29.1247H87.0543L82.8319 22.1984L84.9431 20.1893C85.5413 19.6077 85.9987 19.2816 86.3154 19.2112C86.4561 19.1759 86.6145 19.1583 86.7904 19.1583C87.195 19.1583 87.415 19.0261 87.4501 18.7617C87.4677 18.6736 87.4765 18.5855 87.4765 18.4974H82.9903V19.1583H84.9431L79.7707 24.049V12.6285H74.8622V13.3159H76.8678V27.6972C76.8678 28.4903 76.472 28.9485 75.6803 29.0719C75.4516 29.1071 75.1789 29.1247 74.8622 29.1247V29.8121H81.7235C81.7235 29.4067 81.5916 29.1864 81.3277 29.1512C81.2573 29.1335 81.1782 29.1247 81.0902 29.1247Z" fill="url(#paint4_linear_3_608)"/>
<path d="M94.6546 18.8146C95.7453 18.8146 96.3963 19.4579 96.6074 20.7445C96.6602 21.0264 96.6866 21.3172 96.6866 21.6168C96.6866 22.4452 96.3875 22.9651 95.7893 23.1766C95.4023 23.2823 94.8393 23.3264 94.1004 23.3088L92.0684 23.2295C92.1387 20.7268 92.7985 19.2816 94.0476 18.8939C94.2587 18.841 94.461 18.8146 94.6546 18.8146ZM99.4839 27.142L98.8505 26.9305C98.3403 28.0408 97.5311 28.7722 96.4227 29.1247C96.0532 29.2481 95.675 29.3098 95.2879 29.3098C93.2295 29.3098 92.1563 27.5562 92.0684 24.049C92.0684 24.0314 92.0684 24.0137 92.0684 23.9961L94.7337 24.049C97.3727 24.1018 98.9561 23.7229 99.4839 22.9122C99.6598 22.6302 99.7478 22.2954 99.7478 21.9076C99.7478 20.5153 99.0441 19.4667 97.6366 18.7617C96.757 18.3388 95.7629 18.1273 94.6546 18.1273C92.6313 18.1273 91.0831 18.8587 90.0099 20.3215C89.2534 21.3613 88.8752 22.6214 88.8752 24.1018C88.8752 26.5164 89.7636 28.2435 91.5406 29.2833C92.4906 29.8121 93.555 30.0764 94.7337 30.0764C96.7394 30.0764 98.1908 29.3627 99.0881 27.9351C99.2464 27.6707 99.3783 27.4064 99.4839 27.142Z" fill="url(#paint5_linear_3_608)"/>
<path d="M103.653 34.0419C103.354 34.0419 103.117 33.8127 102.941 33.3545C102.712 32.7553 102.501 32.3852 102.308 32.2442C102.114 32.1032 101.877 32.0327 101.595 32.0327C100.997 32.0327 100.619 32.2883 100.46 32.7994C100.425 32.9227 100.408 33.0373 100.408 33.143C100.408 33.7599 100.777 34.2445 101.516 34.597C101.973 34.8085 102.475 34.9143 103.02 34.9143C104.463 34.9143 105.686 34.0595 106.688 32.3499C107.075 31.7155 107.445 30.9488 107.797 30.05L111.729 19.9778C111.922 19.502 112.142 19.2376 112.389 19.1847C112.459 19.1671 112.538 19.1583 112.626 19.1583C112.995 19.1583 113.207 19.0437 113.259 18.8146C113.277 18.7265 113.286 18.6207 113.286 18.4974H109.222V19.1583H111.201L108.14 26.8777L104.841 19.1583H106.504V18.4974H100.619V19.1583H101.806L106.82 30.1822C105.923 32.3676 105.061 33.6189 104.234 33.9361C104.041 34.0066 103.847 34.0419 103.653 34.0419Z" fill="url(#paint6_linear_3_608)"/>
<defs>
<linearGradient id="paint0_linear_3_608" x1="68.5286" y1="12.6285" x2="68.5286" y2="33.0571" gradientUnits="userSpaceOnUse">
<stop offset="0.246583" stop-color="#0094E8"/>
<stop offset="0.543705" stop-color="#4C5EFE"/>
<stop offset="1" stop-color="#290088"/>
</linearGradient>
<linearGradient id="paint1_linear_3_608" x1="68.5286" y1="12.6285" x2="68.5286" y2="33.0571" gradientUnits="userSpaceOnUse">
<stop offset="0.246583" stop-color="#0094E8"/>
<stop offset="0.543705" stop-color="#4C5EFE"/>
<stop offset="1" stop-color="#290088"/>
</linearGradient>
<linearGradient id="paint2_linear_3_608" x1="68.5286" y1="12.6285" x2="68.5286" y2="33.0571" gradientUnits="userSpaceOnUse">
<stop offset="0.246583" stop-color="#0094E8"/>
<stop offset="0.543705" stop-color="#4C5EFE"/>
<stop offset="1" stop-color="#290088"/>
</linearGradient>
<linearGradient id="paint3_linear_3_608" x1="68.5286" y1="12.6285" x2="68.5286" y2="33.0571" gradientUnits="userSpaceOnUse">
<stop offset="0.246583" stop-color="#0094E8"/>
<stop offset="0.543705" stop-color="#4C5EFE"/>
<stop offset="1" stop-color="#290088"/>
</linearGradient>
<linearGradient id="paint4_linear_3_608" x1="68.5286" y1="12.6285" x2="68.5286" y2="33.0571" gradientUnits="userSpaceOnUse">
<stop offset="0.246583" stop-color="#0094E8"/>
<stop offset="0.543705" stop-color="#4C5EFE"/>
<stop offset="1" stop-color="#290088"/>
</linearGradient>
<linearGradient id="paint5_linear_3_608" x1="68.5286" y1="12.6285" x2="68.5286" y2="33.0571" gradientUnits="userSpaceOnUse">
<stop offset="0.246583" stop-color="#0094E8"/>
<stop offset="0.543705" stop-color="#4C5EFE"/>
<stop offset="1" stop-color="#290088"/>
</linearGradient>
<linearGradient id="paint6_linear_3_608" x1="68.5286" y1="12.6285" x2="68.5286" y2="33.0571" gradientUnits="userSpaceOnUse">
<stop offset="0.246583" stop-color="#0094E8"/>
<stop offset="0.543705" stop-color="#4C5EFE"/>
<stop offset="1" stop-color="#290088"/>
</linearGradient>
</defs>
</svg>
